<?xml version="1.0" standalone="no"?>
<!DOCTYPE svg PUBLIC "-//W3C//DTD SVG 20010904//EN"
 "http://www.w3.org/TR/2001/REC-SVG-20010904/DTD/svg10.dtd">
<svg version="1.0" xmlns="http://www.w3.org/2000/svg"
 width="824.000000pt" height="724.000000pt" viewBox="0 0 824.000000 724.000000"
 preserveAspectRatio="xMidYMid meet">
<metadata>
Created by potrace 1.16, written by Peter Selinger 2001-2019
</metadata>
<g transform="translate(0.000000,724.000000) scale(0.100000,-0.100000)"
fill="#000000" stroke="none">
<path d="M0 3620 l0 -3620 4120 0 4120 0 0 3620 0 3620 -4120 0 -4120 0 0
-3620z m3027 1675 c23 -16 52 -48 65 -70 l23 -40 0 -550 c0 -302 -2 -748 -5
-990 l-5 -440 -5 320 c-2 176 -5 293 -7 260 -2 -32 -9 -65 -15 -72 -7 -9 -7
-13 1 -13 6 0 11 -9 11 -21 0 -12 -5 -19 -12 -17 -9 3 -15 41 -18 124 -3 65
-7 -162 -10 -506 -4 -498 -6 -371 -8 628 -2 1356 1 1288 -54 1326 -20 14 -155
16 -1265 16 -782 0 -1251 -4 -1267 -10 -14 -5 -35 -24 -46 -42 -20 -33 -20
-53 -22 -1393 -2 -748 -5 -1187 -8 -975 -3 212 -6 360 -8 330 -3 -70 -13 -88
-36 -65 -16 16 -17 -3 -14 -318 2 -185 0 -329 -4 -319 -4 9 -7 624 -7 1365
l-1 1348 24 47 c26 51 45 71 91 95 27 15 155 16 1295 14 l1265 -2 42 -30z
m877 -64 c3 -4 19 -96 36 -202 35 -217 54 -333 70 -429 14 -80 13 -68 45 -285
14 -99 30 -196 35 -215 4 -19 11 -57 15 -85 3 -27 9 -58 11 -68 5 -16 -1 -18
-67 -15 l-74 3 -21 95 c-12 52 -27 121 -34 153 l-11 57 -88 0 -87 0 -18 -87
c-10 -49 -20 -101 -23 -118 -3 -16 -8 -46 -12 -65 l-7 -35 -69 0 c-48 0 -69 4
-68 12 1 6 7 53 13 105 6 51 13 109 16 128 3 19 9 69 14 110 6 41 14 100 20
130 12 66 42 247 45 275 3 18 26 151 40 230 3 17 8 37 11 46 2 9 13 70 24 134
11 65 25 122 32 127 17 11 145 10 152 -1z m2054 -3 c7 -6 12 -34 12 -69 l0
-59 -140 0 -140 0 2 -221 3 -221 110 -1 110 -2 3 -62 3 -63 -116 0 -115 0 0
-235 0 -235 140 0 141 0 -3 -62 -3 -63 -210 0 -210 0 -3 644 c-2 509 0 646 10
653 19 11 391 8 406 -4z m-1258 -303 c0 -226 3 -305 12 -305 6 0 9 3 6 6 -4 3
4 33 17 67 40 107 152 420 172 477 l18 55 79 3 c72 3 78 1 71 -15 -26 -65 -91
-240 -112 -303 -14 -41 -47 -127 -74 -192 l-49 -116 18 -44 c11 -23 38 -101
61 -173 23 -71 76 -199 117 -284 41 -84 74 -157 74 -162 0 -6 -35 -9 -81 -7
-85 3 -84 2 -107 58 -6 14 -41 95 -78 180 -37 85 -84 207 -105 270 l-38 115
-3 -310 -3 -310 -67 -3 -66 -3 -4 243 c-2 134 -5 426 -6 651 l-3 407 76 0 75
0 0 -305z m2106 286 c38 -23 77 -74 93 -120 6 -19 11 -81 11 -138 l0 -104 -67
3 -68 3 -5 98 c-5 93 -7 100 -33 123 -51 44 -135 28 -166 -33 -8 -15 -11 -158
-11 -463 0 -378 2 -445 15 -471 35 -66 144 -65 181 2 9 16 13 19 14 8 0 -25
-45 -60 -87 -66 -51 -6 -89 10 -113 49 -18 31 -20 53 -22 303 -2 254 -3 260
-8 105 -5 -143 -8 -166 -14 -121 -3 21 -17 23 -37 5 l-22 -19 13 25 13 25 -22
-19 c-27 -24 -38 -14 -44 39 -2 22 -4 -45 -5 -150 -2 -180 -1 -193 22 -240 29
-63 52 -83 118 -106 29 -10 45 -18 35 -19 -27 0 -89 28 -116 53 -13 12 -34 45
-47 72 l-24 50 0 466 c0 504 1 514 55 585 42 55 96 74 210 74 81 0 106 -4 131
-19z m722 -263 l2 -278 115 0 115 0 0 280 0 281 78 -3 77 -3 0 -644 c0 -514
-3 -645 -13 -647 -7 -1 -8 0 -2 3 6 3 10 129 10 364 0 337 -1 360 -17 357 -12
-2 -17 3 -15 12 2 11 -2 9 -13 -4 -8 -10 -12 -23 -9 -27 3 -5 -2 -6 -10 -3
-19 7 -21 21 -3 27 6 3 2 4 -10 4 -12 -1 -20 -4 -19 -7 2 -3 -5 -13 -16 -22
-18 -18 -20 -18 -22 5 -1 8 -28 13 -91 15 -49 2 -87 1 -84 -2 3 -3 41 -6 86
-8 60 -1 80 -5 76 -14 -3 -7 -12 -10 -20 -7 -10 4 -14 2 -10 -4 4 -6 0 -14 -9
-17 -8 -3 -12 -10 -9 -16 3 -5 1 -10 -4 -10 -6 0 -11 6 -11 13 0 8 -4 7 -10
-3 -5 -8 -10 -10 -10 -4 0 5 6 16 13 23 10 11 9 13 -4 8 -9 -3 -22 0 -29 6 -8
8 -11 8 -7 1 4 -6 -1 -20 -9 -30 -9 -10 -13 -14 -10 -8 3 7 -3 14 -15 17 -17
5 -18 3 -7 -11 7 -9 1 -7 -12 5 -25 21 -25 21 -49 2 -12 -10 -27 -17 -31 -14
-5 3 -12 1 -15 -5 -5 -8 -11 -7 -21 1 -8 6 -14 8 -14 5 0 -4 -8 -3 -17 3 -14
7 -21 5 -31 -12 -12 -20 -13 -20 -8 -2 l6 20 -16 -20 c-15 -19 -15 -19 -13 10
1 17 0 41 -2 55 -2 14 -6 -139 -9 -340 -5 -323 -6 -291 -8 283 l-2 648 78 -3
77 -3 3 -277z m-4871 -76 c45 -25 96 -84 115 -132 18 -47 13 -141 -12 -193
-41 -86 -138 -147 -235 -147 -53 0 -157 51 -185 90 -75 105 -78 214 -9 314 67
98 216 130 326 68z m-1640 -8 c67 -32 107 -81 126 -153 26 -93 7 -162 -63
-230 -79 -77 -189 -90 -290 -35 -148 80 -169 274 -42 384 85 73 167 84 269 34z
m814 1 c65 -34 115 -109 128 -195 15 -93 -47 -200 -139 -242 -181 -82 -391 92
-335 277 48 158 207 231 346 160z m-850 -827 c51 -15 114 -69 142 -122 33 -63
30 -166 -7 -230 -46 -79 -149 -132 -231 -119 -198 30 -286 261 -152 401 66 69
162 96 248 70z m846 -20 c81 -37 126 -115 126 -214 -1 -74 -27 -139 -73 -177
-104 -88 -230 -82 -326 17 -77 79 -93 162 -49 251 39 81 84 122 152 141 57 16
112 10 170 -18z m822 3 c129 -66 164 -250 69 -365 -111 -134 -321 -108 -394
49 -57 121 -3 263 121 322 41 20 60 23 108 19 31 -3 74 -15 96 -25z m-1607
-847 c23 -16 56 -52 73 -79 26 -42 30 -58 30 -119 0 -80 -17 -124 -67 -175
-111 -114 -306 -85 -380 58 -63 121 -14 261 115 326 44 22 62 26 119 23 55 -3
75 -9 110 -34z"/>
<path d="M3810 4928 c0 -18 -9 -103 -20 -188 -26 -199 -27 -203 -39 -280 -18
-107 -22 -100 69 -100 l80 0 0 28 c0 27 -17 143 -40 272 -16 90 -30 208 -30
256 0 24 -4 44 -10 44 -5 0 -10 -15 -10 -32z"/>
<path d="M5671 4340 c-2 -58 -3 -108 -3 -112 3 -17 -27 -15 -31 3 -5 20 -32
26 -42 9 -3 -5 -12 -7 -19 -4 -20 8 -24 -19 -22 -162 l1 -129 200 0 200 0 3
52 3 52 -138 3 -138 3 -5 195 c-5 154 -6 173 -9 90z"/>
<path d="M4962 4163 c-6 -15 -11 -21 -11 -12 -1 21 -28 33 -28 13 0 -8 4 -14
9 -14 4 0 8 -5 8 -11 0 -5 -5 -7 -12 -3 -8 5 -9 0 -6 -14 7 -25 -10 -41 -23
-21 -5 8 -3 17 4 21 9 6 9 8 0 8 -7 0 -19 12 -28 28 -22 37 -17 22 34 -107
l45 -111 73 0 c40 0 73 2 73 5 0 5 -119 234 -125 243 -2 2 -8 -9 -13 -25z"/>
<path d="M2465 4805 c-119 -43 -139 -211 -33 -286 21 -15 50 -24 88 -27 65 -5
98 9 145 57 24 26 30 41 33 94 3 52 0 67 -20 96 -12 19 -35 43 -50 54 -34 26
-111 31 -163 12z"/>
<path d="M845 3188 c-44 -16 -86 -48 -79 -60 4 -6 2 -8 -4 -4 -16 9 -59 -52
-73 -104 -27 -103 20 -202 120 -252 70 -36 134 -37 199 -4 58 29 85 58 111
116 23 51 26 118 7 172 -40 111 -171 175 -281 136z"/>
</g>
</svg>
